HIERARCHY
ROOT Hips
{
	OFFSET 0.00000 0.00000 0.00000
	CHANNELS 6 Xposition Yposition Zposition Zrotation Yrotation Xrotation 
	JOINT LHipJoint
	{
		OFFSET 0 0 0
		CHANNELS 3 Zrotation Yrotation Xrotation
		JOINT LeftUpLeg
		{
			OFFSET 1.46561 -1.72757 0.83774
			CHANNELS 3 Zrotation Yrotation Xrotation
			JOINT LeftLeg
			{
				OFFSET 2.48915 -6.83890 0.00000
				CHANNELS 3 Zrotation Yrotation Xrotation
				JOINT LeftFoot
				{
					OFFSET 2.60555 -7.15868 0.00000
					CHANNELS 3 Zrotation Yrotation Xrotation
					JOINT LeftToeBase
					{
						OFFSET 0.19248 -0.52884 2.26738
						CHANNELS 3 Zrotation Yrotation Xrotation
						End Site
						{
							OFFSET 0.00000 -0.00000 1.17015
						}
					}
				}
			}
		}
	}
	JOINT RHipJoint
	{
		OFFSET 0 0 0
		CHANNELS 3 Zrotation Yrotation Xrotation
		JOINT RightUpLeg
		{
			OFFSET -1.46918 -1.72757 0.83774
			CHANNELS 3 Zrotation Yrotation Xrotation
			JOINT RightLeg
			{
				OFFSET -2.49034 -6.84216 0.00000
				CHANNELS 3 Zrotation Yrotation Xrotation
				JOINT RightFoot
				{
					OFFSET -2.65971 -7.30750 0.00000
					CHANNELS 3 Zrotation Yrotation Xrotation
					JOINT RightToeBase
					{
						OFFSET -0.19227 -0.52827 2.30785
						CHANNELS 3 Zrotation Yrotation Xrotation
						End Site
						{
							OFFSET -0.00000 -0.00000 1.18972
						}
					}
				}
			}
		}
	}
	JOINT LowerBack
	{
		OFFSET 0 0 0
		CHANNELS 3 Zrotation Yrotation Xrotation
		JOINT Spine
		{
			OFFSET 0.02432 2.19909 -0.28000
			CHANNELS 3 Zrotation Yrotation Xrotation
			JOINT Spine1
			{
				OFFSET 0.03714 2.21816 -0.15261
				CHANNELS 3 Zrotation Yrotation Xrotation
				JOINT Neck
				{
					OFFSET 0 0 0
					CHANNELS 3 Zrotation Yrotation Xrotation
					JOINT Neck1
					{
						OFFSET -0.01896 1.56165 0.21681
						CHANNELS 3 Zrotation Yrotation Xrotation
						JOINT Head
						{
							OFFSET 0.02744 1.56009 0.06764
							CHANNELS 3 Zrotation Yrotation Xrotation
							End Site
							{
								OFFSET 0.01212 1.60574 0.00298
							}
						}
					}
				}
				JOINT LeftShoulder
				{
					OFFSET 0 0 0
					CHANNELS 3 Zrotation Yrotation Xrotation
					JOINT LeftArm
					{
						OFFSET 3.05595 1.48048 -0.60794
						CHANNELS 3 Zrotation Yrotation Xrotation
						JOINT LeftForeArm
						{
							OFFSET 5.20607 -0.00000 -0.00000
							CHANNELS 3 Zrotation Yrotation Xrotation
							JOINT LeftHand
							{
								OFFSET 3.39961 -0.00000 0.00000
								CHANNELS 3 Zrotation Yrotation Xrotation
								JOINT LeftFingerBase
								{
									OFFSET 0 0 0
									CHANNELS 3 Zrotation Yrotation Xrotation
									JOINT LeftHandIndex1
									{
										OFFSET 0.51969 -0.00000 0.00000
										CHANNELS 3 Zrotation Yrotation Xrotation
										End Site
										{
											OFFSET 0.41899 -0.00000 0.00000
										}
									}
								}
								JOINT LThumb
								{
									OFFSET 0 0 0
									CHANNELS 3 Zrotation Yrotation Xrotation
									End Site
									{
										OFFSET 0.42539 -0.00000 0.42539
									}
								}
							}
						}
					}
				}
				JOINT RightShoulder
				{
					OFFSET 0 0 0
					CHANNELS 3 Zrotation Yrotation Xrotation
					JOINT RightArm
					{
						OFFSET -2.99052 1.57608 -0.69102
						CHANNELS 3 Zrotation Yrotation Xrotation
						JOINT RightForeArm
						{
							OFFSET -5.32214 -0.00000 0.00000
							CHANNELS 3 Zrotation Yrotation Xrotation
							JOINT RightHand
							{
								OFFSET -3.51208 -0.00000 0.00000
								CHANNELS 3 Zrotation Yrotation Xrotation
								JOINT RightFingerBase
								{
									OFFSET 0 0 0
									CHANNELS 3 Zrotation Yrotation Xrotation
									JOINT RightHandIndex1
									{
										OFFSET -0.58668 -0.00000 0.00000
										CHANNELS 3 Zrotation Yrotation Xrotation
										End Site
										{
											OFFSET -0.47300 -0.00000 0.00000
										}
									}
								}
								JOINT RThumb
								{
									OFFSET 0 0 0
									CHANNELS 3 Zrotation Yrotation Xrotation
									End Site
									{
										OFFSET -0.48022 -0.00000 0.48022
									}
								}
							}
						}
					}
				}
			}
		}
	}
}
MOTION
Frames: 5
Frame Time: .0083333
0.5269 16.1716 -14.4309 -2.2019 1.2884 26.9148 0.0000 0.0000 0.0000 -9.7943 -10.5679 -55.8065 8.4409 16.4341 54.1356 2.0504 9.6554 -31.9299 0.7276 -5.4501 -15.1970 0.0000 0.0000 0.0000 13.4718 15.5154 -54.5745 -8.6148 -16.5533 54.7481 -3.1624 -2.3034 -34.5214 -0.0054 0.4764 -1.3091 0.1346 -0.1007 15.7788 2.7450 -0.0188 6.5335 2.8080 -0.0427 -1.9108 -1.4808 0.5157 -16.3099 -2.2332 1.2540 6.9332 -0.3524 0.4209 4.7220 0.0000 0.0000 0.0000 -86.4608 -7.7262 23.3981 9.0458 -15.2334 -1.2121 -0.0000 0.0000 -7.4019 25.4241 -3.9766 -1.8881 -7.1250 0.0000 -0.0000 -0.9135 25.5782 0.4296 0.0000 0.0000 0.0000 84.7207 6.7842 7.3042 -13.4215 21.9017 -2.6084 0.0000 0.0000 32.3991 -19.3706 -23.4169 7.9541 7.1250 -0.0000 -0.0000 10.3777 -54.3391 -2.4012
0.5190 16.1645 -14.3524 -2.1985 1.3266 26.9405 0.0000 0.0000 0.0000 -9.7674 -10.6004 -55.5492 8.4717 16.4555 54.2444 2.0762 9.6640 -32.0902 0.7214 -5.4272 -15.1312 0.0000 0.0000 0.0000 13.5795 15.4611 -54.3304 -8.6462 -16.5746 54.8583 -3.1940 -2.3747 -34.7161 -0.0054 0.4741 -1.3026 0.1317 -0.0982 15.7436 2.7395 -0.0156 6.4911 2.8031 -0.0405 -1.9371 -1.4777 0.5116 -16.3219 -2.2486 1.2493 6.9143 -0.3581 0.4178 4.7181 0.0000 0.0000 0.0000 -86.5050 -7.7271 23.0851 8.9965 -15.1549 -1.1992 -0.0000 0.0000 -7.2946 25.4439 -3.9080 -1.8572 -7.1250 0.0000 -0.0000 -0.8974 25.6535 0.4205 0.0000 0.0000 0.0000 84.7005 6.8374 7.3533 -13.4188 21.8977 -2.6074 0.0000 0.0000 32.3625 -19.3581 -23.4331 7.9537 7.1250 -0.0000 -0.0000 10.3972 -54.3530 -2.4094
0.5111 16.1554 -14.2715 -2.1942 1.3567 26.9709 0.0000 0.0000 0.0000 -9.7411 -10.6323 -55.3005 8.5104 16.4822 54.3811 2.1015 9.6779 -32.2493 0.7174 -5.4128 -15.0897 0.0000 0.0000 0.0000 13.6820 15.4107 -54.0971 -8.6848 -16.6006 54.9937 -3.2233 -2.4479 -34.8979 -0.0053 0.4696 -1.2903 0.1228 -0.0957 15.7048 2.7317 -0.0131 6.4437 2.7994 -0.0388 -1.9668 -1.4711 0.5066 -16.3502 -2.2629 1.2435 6.9120 -0.3642 0.4140 4.7220 -0.0000 -0.0000 0.0000 -86.5549 -7.7193 22.7278 8.9357 -15.0579 -1.1834 -0.0000 0.0000 -7.1452 25.4846 -3.8658 -1.8406 -7.1250 0.0000 -0.0000 -0.8660 25.6987 0.4048 -0.0000 -0.0000 0.0000 84.6881 6.8979 7.3633 -13.4029 21.8747 -2.6015 0.0000 0.0000 32.3511 -19.3342 -23.4503 7.9487 7.1250 -0.0000 -0.0000 10.4289 -54.3658 -2.4201
0.5032 16.1436 -14.1885 -2.1951 1.3789 27.0144 0.0000 0.0000 0.0000 -9.7050 -10.6658 -55.0755 8.5586 16.5152 54.5508 2.1235 9.7036 -32.3962 0.7147 -5.4027 -15.0607 0.0000 0.0000 0.0000 13.7816 15.3704 -53.8872 -8.7319 -16.6320 55.1581 -3.2498 -2.5206 -35.0650 -0.0050 0.4582 -1.2589 0.1126 -0.0923 15.6533 2.7247 -0.0099 6.3891 2.7970 -0.0366 -1.9974 -1.4710 0.4997 -16.3828 -2.2690 1.2357 6.9160 -0.3667 0.4095 4.7285 -0.0000 -0.0000 0.0000 -86.6123 -7.7080 22.3213 8.8601 -14.9372 -1.1638 -0.0000 0.0000 -6.9397 25.5388 -3.8653 -1.8448 -7.1250 0.0000 -0.0000 -0.8250 25.6972 0.3857 -0.0000 -0.0000 0.0000 84.6792 6.9659 7.3489 -13.3755 21.8349 -2.5913 0.0000 0.0000 32.3543 -19.3181 -23.4701 7.9479 7.1250 -0.0000 -0.0000 10.4536 -54.3828 -2.4303
0.4955 16.1291 -14.1037 -2.2049 1.3945 27.0594 0.0000 0.0000 0.0000 -9.6576 -10.6950 -54.8641 8.6169 16.5548 54.7557 2.1446 9.7289 -32.5373 0.7117 -5.3916 -15.0289 0.0000 0.0000 0.0000 13.8859 15.3382 -53.6872 -8.7877 -16.6692 55.3530 -3.2740 -2.5997 -35.2213 -0.0047 0.4406 -1.2108 0.1072 -0.0875 15.6015 2.7190 -0.0041 6.3309 2.7928 -0.0331 -2.0318 -1.4812 0.4903 -16.4207 -2.2655 1.2262 6.9285 -0.3647 0.4043 4.7383 0.0000 0.0000 0.0000 -86.6791 -7.6979 21.8585 8.7714 -14.7954 -1.1410 -0.0000 0.0000 -6.6646 25.5726 -3.8581 -1.8442 -7.1250 0.0000 -0.0000 -0.7993 25.7040 0.3736 0.0000 0.0000 0.0000 84.6728 7.0441 7.3176 -13.3357 21.7771 -2.5765 0.0000 0.0000 32.3659 -19.3120 -23.5001 7.9547 7.1250 -0.0000 -0.0000 10.4726 -54.4120 -2.4423
